<?xml version="1.0" encoding="utf-8"?>
<!-- Generator: Adobe Illustrator 21.1.0, SVG Export Plug-In . SVG Version: 6.00 Build 0)  -->
<svg version="1.1" xmlns="http://www.w3.org/2000/svg" xmlns:xlink="http://www.w3.org/1999/xlink" x="0px" y="0px"
	 viewBox="0 0 1224.6 616.5" style="enable-background:new 0 0 1224.6 616.5;" xml:space="preserve">
<style type="text/css">
	.st0{display:none;}
	.st1{fill:none;stroke:#000000;stroke-width:2;stroke-miterlimit:10;}
	.st2{fill:none;stroke:#000000;stroke-miterlimit:10;}
	.st3{display:inline;}
	.st4{font-family:'ArialMT';}
	.st5{font-size:25px;}
	.st6{font-family:'Arial-BoldItalicMT';}
	.st7{font-size:40px;}
	.st8{font-family:'CrimsonText-Bold';}
	.st9{font-size:60px;}
	.st10{font-size:13px;}
</style>
<g id="Circles">
	<circle class="st1" cx="460.8" cy="197.9" r="29.8"/>
	<circle class="st1" cx="661.9" cy="148.4" r="29.8"/>
	<circle class="st1" cx="861.1" cy="348.4" r="29.8"/>
	<circle class="st1" cx="661.9" cy="248.4" r="29.8"/>
	<circle class="st1" cx="460.8" cy="298.5" r="29.8"/>
	<circle class="st1" cx="460.8" cy="399.1" r="29.8"/>
	<circle class="st1" cx="460.8" cy="499.6" r="29.8"/>
	<circle class="st1" cx="661.9" cy="348.4" r="29.8"/>
	<circle class="st1" cx="661.9" cy="448.4" r="29.8"/>
	<circle class="st1" cx="661.9" cy="548.3" r="29.8"/>
</g>
<g id="Arrows">
	<g>
		<g>
			<line class="st2" x1="489.6" y1="190" x2="618.9" y2="159.9"/>
			<g>
				<polygon points="617.6,163.2 627.5,157.9 616.3,157.5 				"/>
			</g>
		</g>
	</g>
	<g>
		<g>
			<line class="st2" x1="489.7" y1="205.4" x2="616.1" y2="241"/>
			<g>
				<polygon points="613.4,243.2 624.6,243.4 614.9,237.7 				"/>
			</g>
		</g>
	</g>
	<g>
		<g>
			<line class="st2" x1="489.6" y1="290.7" x2="616" y2="256.7"/>
			<g>
				<polygon points="614.9,260 624.6,254.4 613.4,254.4 				"/>
			</g>
		</g>
	</g>
	<g>
		<g>
			<line class="st2" x1="484.4" y1="216.2" x2="626.9" y2="323"/>
			<g>
				<polygon points="623.6,324.1 634,328.3 627.1,319.5 				"/>
			</g>
		</g>
	</g>
	<g>
		<g>
			<line class="st2" x1="479.7" y1="221" x2="634.9" y2="411"/>
			<g>
				<polygon points="631.4,411.3 640.5,417.9 635.9,407.7 				"/>
			</g>
		</g>
	</g>
	<g>
		<g>
			<line class="st2" x1="475" y1="224.1" x2="642" y2="508.8"/>
			<g>
				<polygon points="638.5,508.5 646.5,516.4 643.5,505.6 				"/>
			</g>
		</g>
	</g>
	<g>
		<g>
			<line class="st2" x1="484.4" y1="280.2" x2="622.5" y2="173.8"/>
			<g>
				<polygon points="622.7,177.3 629.5,168.4 619.1,172.7 				"/>
			</g>
		</g>
	</g>
	<g>
		<g>
			<line class="st2" x1="489.8" y1="305.7" x2="618.7" y2="337.9"/>
			<g>
				<polygon points="616.1,340.3 627.3,340.1 617.5,334.6 				"/>
			</g>
		</g>
	</g>
	<g>
		<g>
			<line class="st2" x1="485" y1="316" x2="625" y2="421.4"/>
			<g>
				<polygon points="621.7,422.5 632.1,426.7 625.2,417.9 				"/>
			</g>
		</g>
	</g>
	<g>
		<g>
			<line class="st2" x1="491.4" y1="405.7" x2="620.1" y2="438.9"/>
			<g>
				<polygon points="617.4,441.2 628.6,441.1 618.9,435.6 				"/>
			</g>
		</g>
	</g>
	<g>
		<g>
			<line class="st2" x1="489.6" y1="391.2" x2="618.1" y2="358.9"/>
			<g>
				<polygon points="616.9,362.2 626.7,356.7 615.4,356.6 				"/>
			</g>
		</g>
	</g>
	<g>
		<g>
			<line class="st2" x1="480.2" y1="321.2" x2="631" y2="514.4"/>
			<g>
				<polygon points="627.5,514.6 636.5,521.4 632.1,511.1 				"/>
			</g>
		</g>
	</g>
	<g>
		<g>
			<line class="st2" x1="478.3" y1="374.9" x2="630" y2="182.4"/>
			<g>
				<polygon points="631.1,185.7 635.5,175.4 626.5,182.1 				"/>
			</g>
		</g>
	</g>
	<g>
		<g>
			<line class="st2" x1="484.2" y1="380.5" x2="620" y2="274.1"/>
			<g>
				<polygon points="620.3,277.6 627,268.6 616.7,273 				"/>
			</g>
		</g>
	</g>
	<g>
		<g>
			<line class="st2" x1="485.3" y1="416.2" x2="623" y2="524"/>
			<g>
				<polygon points="619.7,525.1 630,529.5 623.3,520.5 				"/>
			</g>
		</g>
	</g>
	<g>
		<g>
			<line class="st2" x1="473.7" y1="472.7" x2="640" y2="190"/>
			<g>
				<polygon points="641.5,193.2 644.5,182.4 636.5,190.3 				"/>
			</g>
		</g>
	</g>
	<g>
		<g>
			<line class="st2" x1="481.5" y1="475.9" x2="631.8" y2="285.2"/>
			<g>
				<polygon points="632.8,288.6 637.2,278.3 628.2,285 				"/>
			</g>
		</g>
	</g>
	<g>
		<g>
			<line class="st2" x1="485.6" y1="483" x2="626.6" y2="374.6"/>
			<g>
				<polygon points="626.8,378.1 633.7,369.2 623.3,373.5 				"/>
			</g>
		</g>
	</g>
	<g>
		<g>
			<line class="st2" x1="489.4" y1="490.9" x2="619.4" y2="458.8"/>
			<g>
				<polygon points="618.2,462.1 628,456.7 616.8,456.5 				"/>
			</g>
		</g>
	</g>
	<g>
		<g>
			<line class="st2" x1="490" y1="505.9" x2="618.7" y2="537.9"/>
			<g>
				<polygon points="616.1,540.3 627.3,540.1 617.5,534.6 				"/>
			</g>
		</g>
	</g>
	<g>
		<g>
			<line class="st2" x1="381" y1="498.1" x2="417.5" y2="498.1"/>
			<g>
				<polygon points="415.5,501 426.3,498.1 415.5,495.2 				"/>
			</g>
		</g>
	</g>
	<g>
		<g>
			<line class="st2" x1="381" y1="399.1" x2="417.5" y2="399.1"/>
			<g>
				<polygon points="415.5,402 426.3,399.1 415.5,396.2 				"/>
			</g>
		</g>
	</g>
	<g>
		<g>
			<line class="st2" x1="381" y1="298.5" x2="417.5" y2="298.5"/>
			<g>
				<polygon points="415.5,301.4 426.3,298.5 415.5,295.6 				"/>
			</g>
		</g>
	</g>
	<g>
		<g>
			<line class="st2" x1="381" y1="197.9" x2="417.5" y2="197.9"/>
			<g>
				<polygon points="415.5,200.8 426.3,197.9 415.5,195 				"/>
			</g>
		</g>
	</g>
	<g>
		<g>
			<line class="st2" x1="682.4" y1="170.2" x2="830" y2="316.7"/>
			<g>
				<polygon points="826.6,317.3 836.3,322.9 830.7,313.2 				"/>
			</g>
		</g>
	</g>
	<g>
		<g>
			<line class="st2" x1="688.6" y1="261.9" x2="823.4" y2="329.4"/>
			<g>
				<polygon points="820.3,331.1 831.3,333.4 822.9,325.9 				"/>
			</g>
		</g>
	</g>
	<g>
		<g>
			<line class="st2" x1="690.3" y1="348.4" x2="817.8" y2="348.4"/>
			<g>
				<polygon points="815.8,351.3 826.7,348.4 815.8,345.5 				"/>
			</g>
		</g>
	</g>
	<g>
		<g>
			<line class="st2" x1="688.4" y1="434.5" x2="821.7" y2="368"/>
			<g>
				<polygon points="821.3,371.5 829.7,364.1 818.7,366.3 				"/>
			</g>
		</g>
	</g>
	<g>
		<g>
			<line class="st2" x1="682.2" y1="526.5" x2="829.7" y2="380.2"/>
			<g>
				<polygon points="830.4,383.6 836,373.9 826.3,379.5 				"/>
			</g>
		</g>
	</g>
	<g>
		<g>
			<line class="st2" x1="891" y1="348.4" x2="925.1" y2="348.4"/>
			<g>
				<polygon points="923.2,351.3 934,348.4 923.2,345.5 				"/>
			</g>
		</g>
	</g>
</g>
<g id="Inputs">
	<g id="I6" class="st0">
		<text transform="matrix(1 0 0 1 231.7017 205.0587)" class="st3 st4 st5">romance 2.0</text>
		<text transform="matrix(1 0 0 1 85.9253 305.7254)" class="st3 st4 st5">m4ww w4mm t4mw mw4t</text>
		<text transform="matrix(1 0 0 1 58.1299 404.3921)" class="st3 st4 st5">miscommunication er(r)o(r)s</text>
		<text transform="matrix(1 0 0 1 255.3467 505.0587)" class="st3 st4 st5">classifieds</text>
	</g>
	<g id="I5_1_" class="st0">
		<text transform="matrix(1 0 0 1 297.0093 205.0587)" class="st3 st4 st5">how to</text>
		<text transform="matrix(1 0 0 1 58.1665 305.7254)" class="st3 st4 st5">mw4m mw4m w4mw m4mw</text>
		<text transform="matrix(1 0 0 1 58.1299 404.3921)" class="st3 st4 st5">miscommunication er(r)o(r)s</text>
		<text transform="matrix(1 0 0 1 251.1475 505.0587)" class="st3 st4 st5">cookbooks</text>
	</g>
	<g id="I4">
		<text transform="matrix(1 0 0 1 274.7925 205.0587)" class="st4 st5">soft core</text>
		<text transform="matrix(1 0 0 1 34.4727 305.7254)" class="st4 st5">m4m w4w t4m m4t t4w w4t t4t</text>
		<text transform="matrix(1 0 0 1 146.9604 404.3921)" class="st4 st5">communication eros</text>
		<text transform="matrix(1 0 0 1 217.8345 505.0587)" class="st4 st5">xx manifestos</text>
	</g>
	<g id="I3" class="st0">
		<text transform="matrix(1 0 0 1 265.0513 205.0587)" class="st3 st4 st5">hard core</text>
		<text transform="matrix(1 0 0 1 266.4307 305.7254)" class="st3 st4 st5">no theory</text>
		<text transform="matrix(1 0 0 1 66.4551 404.3921)" class="st3 st4 st5">miscommunication e(r)o(r)s</text>
		<text transform="matrix(1 0 0 1 181.7017 505.0587)" class="st3 st4 st5">cyber manifestos</text>
	</g>
	<g id="I2" class="st0">
		<text transform="matrix(1 0 0 1 320.6299 205.0587)" class="st3 st4 st5">porn</text>
		<text transform="matrix(1 0 0 1 230.2979 305.7254)" class="st3 st4 st5">queer theory</text>
		<text transform="matrix(1 0 0 1 146.9604 404.3921)" class="st3 st4 st5">communication eros</text>
		<text transform="matrix(1 0 0 1 195.5811 505.0587)" class="st3 st4 st5">tech manifestos</text>
	</g>
	<g id="I1" class="st0">
		<text transform="matrix(1 0 0 1 284.5337 205.0587)" class="st3 st4 st5">erotic lit</text>
		<text transform="matrix(1 0 0 1 208.1055 305.7254)" class="st3 st4 st5">feminist theory</text>
		<text transform="matrix(1 0 0 1 58.1299 404.3921)" class="st3 st4 st5">miscommunication er(r)o(r)s</text>
		<text transform="matrix(1 0 0 1 133.0444 505.0587)" class="st3 st4 st5">ethics of embodiment</text>
	</g>
</g>
<g id="Output">
	<text transform="matrix(1 0 0 1 945.667 341.4918)"><tspan x="0" y="0" class="st6 st7">NEW</tspan><tspan x="0" y="42" class="st6 st7">EROTICISMS</tspan></text>
</g>
<g id="Title">
	<text transform="matrix(1 0 0 1 136 90.3922)" class="st8 st9">Queer AI</text>
</g>
<g id="Labels">
	<g id="Surprise">
		<text transform="matrix(1 0 0 1 804.9998 90.3921)" class="st4 st10">OUTPUT LAYER</text>
		<text transform="matrix(1 0 0 1 806.3331 69.7256)" class="st4 st5">Surprise</text>
	</g>
	<g id="Alchemy">
		<text transform="matrix(1 0 0 1 613.9998 90.3921)" class="st4 st10">HIDDEN LAYER</text>
		<text transform="matrix(1 0 0 1 612.3331 69.7256)" class="st4 st5">Alchemy</text>
	</g>
	<g id="Recipes">
		<text transform="matrix(1 0 0 1 416.9998 90.3921)" class="st4 st10">INPUT LAYER</text>
		<text transform="matrix(1 0 0 1 415.3332 69.7256)" class="st4 st5">Recipes</text>
	</g>
</g>
</svg>
